Coordinates
version=1
nRows=8
nColumns=63
inDegrees=yes

Units are S.I. units (second, meters, Newtons, ...)
If the header above contains a line with 'inDegrees', this indicates whether rotational values are in degrees (yes) or radians (no).

endheader
time	pelvis_tilt	pelvis_list	pelvis_rotation	pelvis_tx	pelvis_ty	pelvis_tz	hip_flexion_r	hip_adduction_r	hip_rotation_r	knee_angle_r	knee_angle_r_beta	ankle_angle_r	subtalar_angle_r	mtp_angle_r	hip_flexion_l	hip_adduction_l	hip_rotation_l	knee_angle_l	knee_angle_l_beta	ankle_angle_l	subtalar_angle_l	mtp_angle_l	L5_S1_Flex_Ext	L5_S1_Lat_Bending	L5_S1_axial_rotation	L4_L5_Flex_Ext	L4_L5_Lat_Bending	L4_L5_axial_rotation	L3_L4_Flex_Ext	L3_L4_Lat_Bending	L3_L4_axial_rotation	L2_L3_Flex_Ext	L2_L3_Lat_Bending	L2_L3_axial_rotation	L1_L2_Flex_Ext	L1_L2_Lat_Bending	L1_L2_axial_rotation	L1_T12_Flex_Ext	L1_T12_Lat_Bending	L1_T12_axial_rotation	Abs_r3	Abs_r2	Abs_r1	Abs_t1	Abs_t2	neck_flexion	neck_bending	neck_rotation	arm_flex_r	arm_add_r	arm_rot_r	elbow_flex_r	pro_sup_r	wrist_flex_r	wrist_dev_r	arm_flex_l	arm_add_l	arm_rot_l	elbow_flex_l	pro_sup_l	wrist_flex_l	wrist_dev_l
      3.50000000	     -4.82518529	     -3.34946498	     82.90280228	     -0.08466613	      0.73326313	      0.70362037	      9.95339760	     -7.29530462	     -7.97372502	     17.56139754	      0.30650421	     38.21204206	     17.28305117	      0.00000000	      7.17307177	      3.77729544	    -16.42153077	     10.41986514	      0.18186095	     35.83583404	     15.23694181	      0.00000000	     -0.37892301	     -0.90148560	      1.97615488	     -0.70369793	     -1.19897584	      2.09966456	     -0.62253262	     -2.19187208	      2.09966456	     -0.43307111	     -2.19187208	      1.72913552	     -0.35186791	     -1.83830943	      1.60562584	     -0.21651661	     -1.39640119	      1.48211616	     -2.70660918	    -10.19778537	     10.99078060	      0.00000000	      0.00000000	     19.20392345	    -10.12770036	     16.52478748	      7.54588386	     -6.87041607	    131.76924619	      1.94193972	      1.80790784	     -8.38436609	    -13.95535978	     11.83485060	    -16.82200706	    108.47933091	      9.56111651	     17.45063660	     -0.80653565	     -8.54949832
      3.52500000	     -5.12954079	     -3.40179161	     82.76628581	     -0.08288515	      0.73199207	      0.70372982	     10.10009436	     -7.47851110	     -7.78809521	     17.62083375	      0.30754157	     38.63877575	     17.31285605	      0.00000000	      7.16747837	      4.01870207	    -16.48923952	     10.16715783	      0.17745038	     36.10539034	     15.24708841	      0.00000000	     -0.42134915	     -1.00376750	      1.94648639	     -0.78248750	     -1.33501078	      2.06814179	     -0.69223452	     -2.44056030	      2.06814179	     -0.48155994	     -2.44056030	      1.70317559	     -0.39126482	     -2.04688269	      1.58152019	     -0.24075890	     -1.55483586	      1.45986479	     -3.00965483	    -11.35481872	     10.82577337	      0.00000000	      0.00000000	     20.22237054	     -9.85626908	     16.02703232	      7.55108647	     -6.37128968	    131.31030098	      2.11805723	      1.66487343	     -8.45631589	    -14.19805126	     11.69011227	    -17.01574599	    107.97953277	      8.45307038	     16.98138007	     -1.03472187	     -8.73845433
      3.55000000	     -5.78117226	     -3.36997397	     82.11750048	     -0.08093429	      0.73125095	      0.70359545	     10.48563422	     -8.03119250	     -7.17076946	     18.05661935	      0.31514746	     39.01792758	     17.40254702	      0.00000000	      6.73396379	      4.74816284	    -16.60918986	      9.14544801	      0.15961818	     35.78478109	     14.92582238	      0.00000000	     -0.46381044	     -1.13104355	      2.02740052	     -0.86134237	     -1.50428792	      2.15411306	     -0.76199417	     -2.75001929	      2.15411306	     -0.53008895	     -2.75001929	      1.77397546	     -0.43069438	     -2.30642401	      1.64726292	     -0.26502129	     -1.75198646	      1.52055039	     -3.31295160	    -12.79459086	     11.27579349	      0.00000000	      0.00000000	     20.57967284	     -9.04013113	     15.39878807	      7.52331547	     -6.09335503	    127.00927742	      2.93011957	      1.71192799	     -7.88231636	    -14.98058279	     11.80376944	    -17.36766337	    107.35035065	      7.86957582	     15.91666022	     -0.67649263	    -10.14929887
      3.57500000	     -5.52966046	     -3.33594868	     82.20959371	     -0.08096922	      0.73133978	      0.70327604	     10.25098209	     -7.76404961	     -7.28753608	     17.83748561	      0.31132285	     38.90930133	     17.38029918	      0.00000000	      6.37747697	      4.67431449	    -15.40522408	      8.53097041	      0.14889352	     35.57197730	     13.68330270	      0.00000000	     -0.50832127	     -1.11716338	      2.04446724	     -0.94400343	     -1.48582729	      2.17224645	     -0.83512101	     -2.71627104	      2.17224645	     -0.58096038	     -2.71627104	      1.78890884	     -0.47202713	     -2.27811956	      1.66112964	     -0.29045477	     -1.73048607	      1.53335043	     -3.63088799	    -12.63757557	     11.37071347	      0.00000000	      0.00000000	     20.25640886	     -8.07300750	     14.73376042	      7.33000274	     -6.64628638	    120.83173101	      4.07671465	      1.96451785	     -7.10994974	    -16.08443349	     12.23128830	    -16.58274376	    113.11526071	      6.58049726	     10.96388843	     -0.68239433	    -11.06702607
      3.60000000	     -5.01992624	     -3.28127749	     82.65767442	     -0.08214152	      0.73195863	      0.70286843	      9.81348499	     -7.33236520	     -7.82826015	     17.46938432	      0.30489827	     38.61574100	     17.42767698	      0.00000000	      6.05933388	      4.32723531	    -14.51241962	      8.14282211	      0.14211906	     35.49692518	     13.30966524	      0.00000000	     -0.52352502	     -1.04373374	      2.02442162	     -0.97223832	     -1.38816587	      2.15094797	     -0.86009926	     -2.53773422	      2.15094797	     -0.59833675	     -2.53773422	      1.77136892	     -0.48614534	     -2.12838184	      1.64484257	     -0.29914220	     -1.61674356	      1.51831622	     -3.73948690	    -11.80692481	     11.25922573	      0.00000000	      0.00000000	     19.40671352	     -7.26914425	     14.12696322	      6.99374646	     -7.53833042	    115.80175653	      5.04157581	      2.07825853	     -6.64582527	    -16.77077906	     12.33984145	    -15.40447970	    117.62748558	      5.26010698	      7.38402897	     -0.74151429	    -11.99080433
      3.62500000	     -4.30515704	     -3.06510425	     83.08704856	     -0.08364581	      0.73303312	      0.70185165	      9.09952438	     -6.70126037	     -8.29946463	     16.96693714	      0.29612892	     38.24760755	     17.39638498	      0.00000000	      5.48661302	      3.78332258	    -13.98594366	      7.72349965	      0.13480050	     35.53905386	     13.46457286	      0.00000000	     -0.50803800	     -0.92868586	      2.00606745	     -0.94347738	     -1.23515219	      2.13144667	     -0.83465564	     -2.25800679	      2.13144667	     -0.58063664	     -2.25800679	      1.75530902	     -0.47176409	     -1.89377620	      1.62992980	     -0.29029292	     -1.43853439	      1.50455059	     -3.62886466	    -10.50548015	     11.15714535	      0.00000000	      0.00000000	     18.22356998	     -6.61581305	     13.66676780	      6.50919221	     -8.40396942	    114.24405172	      5.19851565	      1.77095281	     -6.43149768	    -16.75741272	     12.02646843	    -14.08908355	    118.73786484	      4.23439399	      7.16397207	     -1.49047082	    -12.89839423
      3.65000000	     -3.67038540	     -2.71230624	     83.78711249	     -0.08563599	      0.73439530	      0.70076835	      8.20359363	     -6.21895704	     -9.07714403	     16.44191586	      0.28696557	     37.88439378	     17.44213203	      0.00000000	      4.80276907	      3.43848273	    -12.13838975	      7.28870173	      0.12721184	     35.36163208	     12.22229330	      0.00000000	     -0.49864249	     -0.81482431	      1.97899052	     -0.92602897	     -1.08371634	      2.10267742	     -0.81921975	     -1.98116384	      2.10267742	     -0.56989850	     -1.98116384	      1.73161670	     -0.46303942	     -1.66158974	      1.60792979	     -0.28492432	     -1.26216286	      1.48424289	     -3.56175346	     -9.21745562	     11.00655155	      0.00000000	      0.00000000	     17.41763187	     -6.39477322	     13.24154273	      5.89658391	     -9.53434101	    108.82182912	      6.29028930	      2.33269834	     -6.31006403	    -17.04282494	     11.85427582	    -12.65353056	    125.45294585	      2.83741367	      3.92534601	     -2.47600206	    -12.61845715
      3.67500000	     -3.07129602	     -2.30359295	     84.06355612	     -0.08707755	      0.73586374	      0.69940617	      7.34985832	     -5.69256033	     -9.35264834	     15.96371546	      0.27861940	     37.51852711	     17.37559068	      0.00000000	      3.92315501	      3.09638777	    -10.84489603	      6.60436958	      0.11526799	     35.11793586	     11.21643344	      0.00000000	     -0.47375460	     -0.70792621	      1.98463795	     -0.87980966	     -0.94154185	      2.10867782	     -0.77833143	     -1.72125178	      2.10867782	     -0.54145413	     -1.72125178	      1.73655820	     -0.43992852	     -1.44360312	      1.61251833	     -0.27070338	     -1.09657769	      1.48847846	     -3.38398172	     -8.00820282	     11.03796086	      0.00000000	      0.00000000	     16.55327724	     -5.88422361	     13.06902549	      5.31897049	    -10.30994286	    107.41768070	      6.53169670	      2.36418761	     -6.53079461	    -16.78913008	     11.50054127	    -11.55619819	    128.85271705	      2.10447624	      3.22191981	     -3.43473252	    -11.91760210
